<?xml version="1.0" encoding="UTF-8" standalone="no"?>
<!-- Created with Inkscape (http://www.inkscape.org/) -->

<svg
   xmlns:dc="http://purl.org/dc/elements/1.1/"
   xmlns:cc="http://creativecommons.org/ns#"
   xmlns:rdf="http://www.w3.org/1999/02/22-rdf-syntax-ns#"
   xmlns:svg="http://www.w3.org/2000/svg"
   xmlns="http://www.w3.org/2000/svg"
   xmlns:sodipodi="http://sodipodi.sourceforge.net/DTD/sodipodi-0.dtd"
   xmlns:inkscape="http://www.inkscape.org/namespaces/inkscape"
   width="29.225479mm"
   height="49.760784mm"
   viewBox="0 0 29.225479 49.760784"
   version="1.1"
   id="svg8"
   inkscape:version="0.92.1 r15371"
   sodipodi:docname="left.svg">
  <defs
     id="defs2" />
  <sodipodi:namedview
     id="base"
     pagecolor="#ffffff"
     bordercolor="#666666"
     borderopacity="1.0"
     inkscape:pageopacity="0.0"
     inkscape:pageshadow="2"
     inkscape:zoom="0.35"
     inkscape:cx="-180.17349"
     inkscape:cy="-138.98344"
     inkscape:document-units="mm"
     inkscape:current-layer="layer1"
     showgrid="false"
     inkscape:window-width="1366"
     inkscape:window-height="696"
     inkscape:window-x="0"
     inkscape:window-y="28"
     inkscape:window-maximized="1" />
  <metadata
     id="metadata5">
    <rdf:RDF>
      <cc:Work
         rdf:about="">
        <dc:format>image/svg+xml</dc:format>
        <dc:type
           rdf:resource="http://purl.org/dc/dcmitype/StillImage" />
        <dc:title></dc:title>
      </cc:Work>
    </rdf:RDF>
  </metadata>
  <g
     inkscape:label="Layer 1"
     inkscape:groupmode="layer"
     id="layer1"
     transform="translate(-102.09947,-62.299848)">
    <path
       style="fill:#01549f;fill-opacity:0.94117647;stroke-width:0.05104595"
       d="m 127.22734,111.98948 c 2.16704,-0.40771 4.22673,-2.82342 4.09128,-4.79845 -0.0331,-0.4833 -0.17532,-0.92417 -0.41154,-1.27614 -0.0942,-0.14038 -3.78312,-4.03391 -8.19759,-8.652291 -4.41446,-4.61838 -8.39167,-8.77968 -8.83824,-9.24732 l -0.81196,-0.85027 8.90704,-9.32393 c 8.05223,-8.42913 8.92386,-9.35758 9.08236,-9.67441 0.63612,-1.27153 0.15102,-2.96573 -1.25421,-4.38032 -0.6751,-0.67959 -1.41648,-1.1332 -2.23656,-1.36844 -0.40709,-0.11677 -0.53107,-0.13005 -1.03462,-0.1108 -0.64309,0.0246 -0.96607,0.11738 -1.41916,0.40778 -0.36544,0.23421 -22.35175,22.58627 -22.59378,22.96964 -0.38302,0.60667 -0.51151,1.45653 -0.32921,2.17744 0.0591,0.23354 0.17768,0.54749 0.2636,0.69767 0.1126,0.19681 3.24471,3.41354 11.21651,11.519591 6.08315,6.18559 11.1417,11.3128 11.24122,11.39381 0.39901,0.32479 1.20162,0.59607 1.73784,0.58739 0.12633,-0.002 0.3905,-0.034 0.58702,-0.0709 z"
       id="path4496"
       inkscape:connector-curvature="0"
       sodipodi:nodetypes="ccccsccccccccccscccc" />
  </g>
</svg>
