<?xml version="1.0" encoding="UTF-8" standalone="no"?>
<!-- Created with Inkscape (http://www.inkscape.org/) -->

<svg
   xmlns:dc="http://purl.org/dc/elements/1.1/"
   xmlns:cc="http://creativecommons.org/ns#"
   xmlns:rdf="http://www.w3.org/1999/02/22-rdf-syntax-ns#"
   xmlns:svg="http://www.w3.org/2000/svg"
   xmlns="http://www.w3.org/2000/svg"
   xmlns:sodipodi="http://sodipodi.sourceforge.net/DTD/sodipodi-0.dtd"
   xmlns:inkscape="http://www.inkscape.org/namespaces/inkscape"
   width="29.35mm"
   height="50.9767mm"
   viewBox="0 0 29.35 50.9767"
   version="1.1"
   id="svg8"
   inkscape:version="0.92.1 r15371"
   sodipodi:docname="right.svg">
  <defs
     id="defs2" />
  <sodipodi:namedview
     id="base"
     pagecolor="#ffffff"
     bordercolor="#666666"
     borderopacity="1.0"
     inkscape:pageopacity="0.0"
     inkscape:pageshadow="2"
     inkscape:zoom="0.35"
     inkscape:cx="-840.13519"
     inkscape:cy="-132.61974"
     inkscape:document-units="mm"
     inkscape:current-layer="layer1"
     showgrid="false"
     inkscape:window-width="1366"
     inkscape:window-height="696"
     inkscape:window-x="0"
     inkscape:window-y="28"
     inkscape:window-maximized="1" />
  <metadata
     id="metadata5">
    <rdf:RDF>
      <cc:Work
         rdf:about="">
        <dc:format>image/svg+xml</dc:format>
        <dc:type
           rdf:resource="http://purl.org/dc/dcmitype/StillImage" />
        <dc:title></dc:title>
      </cc:Work>
    </rdf:RDF>
  </metadata>
  <g
     inkscape:label="Layer 1"
     inkscape:groupmode="layer"
     id="layer1"
     transform="translate(-125.52386,-62.767662)">
    <path
       style="fill:#00549f;fill-opacity:0.94117647;stroke-width:0.0690994"
       d="m 127.22734,111.98953 c -1.44179,-1.44323 -1.73131,-1.76453 -1.63737,-1.8171 0.0628,-0.0351 1.37954,-1.32108 2.92618,-2.85767 1.54663,-1.53658 3.48074,-3.44673 4.29802,-4.24477 3.13478,-3.06098 5.1848,-5.07634 8.15341,-8.01554 1.6912,-1.67445 3.94109,-3.89462 4.99974,-4.93371 l 1.92481,-1.88925 -0.16278,-0.15186 c -0.4403,-0.41073 -4.37358,-4.27571 -7.14182,-7.01778 -1.71021,-1.69404 -4.53983,-4.47714 -6.28805,-6.18465 -1.74821,-1.70751 -4.4379,-4.3567 -5.97709,-5.8871 l -2.79853,-2.78253 1.7271,-1.72862 c 0.9499,-0.95073 1.74803,-1.72078 1.77361,-1.7112 0.0857,0.032 1.72211,1.63427 5.58653,5.46975 2.10963,2.09384 4.73768,4.69317 5.84011,5.7763 1.10243,1.08314 2.89007,2.83933 3.97254,3.90266 1.08247,1.06332 3.87658,3.82811 6.20912,6.14396 l 4.24099,4.21065 -1.26972,1.24684 c -0.69834,0.68576 -2.8713,2.83394 -4.82881,4.77373 -1.9575,1.9398 -4.35179,4.30435 -5.32065,5.25456 -3.72637,3.65463 -5.91626,5.8137 -10.07578,9.93396 -2.36855,2.34619 -4.32751,4.26508 -4.35326,4.2642 -0.0258,-7.8e-4 -0.83498,-0.79056 -1.7983,-1.75483 z"
       id="path4505"
       inkscape:connector-curvature="0" />
  </g>
</svg>
