<?xml version="1.0" encoding="UTF-8" standalone="no"?>
<!-- Created with Inkscape (http://www.inkscape.org/) -->

<svg
   xmlns:dc="http://purl.org/dc/elements/1.1/"
   xmlns:cc="http://creativecommons.org/ns#"
   xmlns:rdf="http://www.w3.org/1999/02/22-rdf-syntax-ns#"
   xmlns:svg="http://www.w3.org/2000/svg"
   xmlns="http://www.w3.org/2000/svg"
   xmlns:sodipodi="http://sodipodi.sourceforge.net/DTD/sodipodi-0.dtd"
   xmlns:inkscape="http://www.inkscape.org/namespaces/inkscape"
   width="13.229161mm"
   height="13.218395mm"
   viewBox="0 0 13.229161 13.218395"
   version="1.1"
   id="svg8"
   inkscape:version="0.92.1 r15371"
   sodipodi:docname="drawing.svg">
  <defs
     id="defs2" />
  <sodipodi:namedview
     id="base"
     pagecolor="#ffffff"
     bordercolor="#666666"
     borderopacity="1.0"
     inkscape:pageopacity="0.0"
     inkscape:pageshadow="2"
     inkscape:zoom="0.35"
     inkscape:cx="-421.05661"
     inkscape:cy="-16.777613"
     inkscape:document-units="mm"
     inkscape:current-layer="layer1"
     showgrid="false"
     inkscape:window-width="1366"
     inkscape:window-height="696"
     inkscape:window-x="0"
     inkscape:window-y="28"
     inkscape:window-maximized="1" />
  <metadata
     id="metadata5">
    <rdf:RDF>
      <cc:Work
         rdf:about="">
        <dc:format>image/svg+xml</dc:format>
        <dc:type
           rdf:resource="http://purl.org/dc/dcmitype/StillImage" />
        <dc:title></dc:title>
      </cc:Work>
    </rdf:RDF>
  </metadata>
  <g
     inkscape:label="Layer 1"
     inkscape:groupmode="layer"
     id="layer1"
     transform="translate(-70.583132,-131.17586)">
    <path
       style="fill:#00549f;fill-opacity:0.94117647;stroke-width:0.01665916"
       d="m 76.873401,144.38586 c -0.02748,-0.003 -0.143685,-0.0133 -0.258217,-0.0242 -0.675499,-0.06 -1.627679,-0.3283 -2.082396,-0.58667 -0.0504,-0.0287 -0.0936,-0.0502 -0.09602,-0.048 -0.0092,0.008 -0.470484,-0.23385 -0.645312,-0.33912 -1.59105,-0.95814 -2.71172,-2.54782 -3.082301,-4.37227 -0.108934,-0.53627 -0.153235,-1.27661 -0.109134,-1.8232 0.04543,-0.5629 0.182788,-1.21347 0.351278,-1.66371 0.04308,-0.11517 0.01685,-0.1155 0.382929,0.005 0.300541,0.0985 0.557088,0.21238 0.78564,0.34852 0.737197,0.43914 1.272554,1.07253 1.60583,1.89985 l 0.07002,0.17382 -0.08007,0.11 c -0.207685,0.28553 -0.513169,0.8611 -0.641263,1.20821 -0.0577,0.15633 -0.156918,0.46857 -0.157335,0.4951 -4.48e-4,0.0262 0.267179,0.19019 0.457009,0.28022 0.327076,0.15517 0.651979,0.24864 1.100432,0.31675 0.328325,0.0498 1.033874,0.0627 1.444509,0.0262 0.38881,-0.0345 0.573353,-0.0623 1.062694,-0.16 0.520559,-0.104 0.694976,-0.1235 0.998792,-0.112 0.270195,0.01 0.447182,0.0463 0.626406,0.1275 0.116018,0.0527 0.273946,0.15967 0.273946,0.18558 0,0.008 -0.04577,0.0697 -0.101701,0.13601 -0.508177,0.60287 -0.83695,1.38151 -0.915721,2.16875 -0.0272,0.2718 -0.01133,0.7755 0.03257,1.03384 0.03043,0.17907 0.09827,0.46944 0.127318,0.54489 0.01417,0.0367 -0.0098,0.042 -0.281867,0.0632 -0.19821,0.015 -0.751622,0.0192 -0.868021,0.007 z m 1.408377,-0.19045 c -0.104334,-0.38667 -0.141235,-0.71777 -0.129468,-1.16176 0.0092,-0.34744 0.03177,-0.51277 0.113484,-0.83181 0.118985,-0.4645 0.345023,-0.92744 0.647599,-1.32629 0.19687,-0.25952 0.173798,-0.24262 0.308951,-0.22639 0.06413,0.008 0.277791,0.015 0.474786,0.015 0.481452,8.7e-4 0.862357,-0.0402 1.266095,-0.13683 l 0.158268,-0.0378 0.01083,-0.14116 c 0.02338,-0.30354 -0.03065,-0.71446 -0.145018,-1.10308 -0.224036,-0.76124 -0.741378,-1.63691 -1.41349,-2.39254 -0.439242,-0.4938 -0.59929,-0.71005 -0.73354,-0.99112 -0.08975,-0.18789 -0.135101,-0.3332 -0.159401,-0.51069 -0.01758,-0.12833 -0.0105,-0.28907 0.01433,-0.32945 0.0078,-0.0133 0.06695,-0.008 0.200074,0.0133 0.66687,0.11384 1.394565,0.05 2.013535,-0.17655 0.356039,-0.13033 0.823813,-0.39132 1.112149,-0.62059 0.06413,-0.051 0.203495,-0.1779 0.309681,-0.28202 l 0.193065,-0.18928 0.126101,0.17972 c 0.63084,0.89907 1.054924,2.06538 1.119344,3.07841 0.0047,0.0733 0.016,0.21948 0.0253,0.32485 0.0598,0.6809 -0.03317,1.55491 -0.242322,2.27787 -0.244502,0.84515 -0.650568,1.63061 -1.199411,2.32005 -0.2208,0.27735 -0.746326,0.80492 -1.015915,1.01986 -0.832596,0.66379 -1.789159,1.11424 -2.804062,1.32046 -0.113501,0.023 -0.208262,0.042 -0.210579,0.042 -0.0023,0 -0.02055,-0.0605 -0.0405,-0.1345 z m -1.252932,-5.03024 c -0.32884,-0.0555 -0.670141,-0.25756 -0.861071,-0.50977 -0.44329,-0.58561 -0.385793,-1.37123 0.136685,-1.86754 0.629727,-0.59817 1.638897,-0.4785 2.111217,0.25037 0.354705,0.54736 0.278991,1.277 -0.180155,1.73615 -0.310059,0.31005 -0.781091,0.4626 -1.20667,0.39079 z m -3.011464,-1.38546 c -0.03502,-0.11684 -0.198203,-0.47888 -0.287612,-0.63798 -0.335133,-0.5964 -0.782308,-1.06669 -1.359215,-1.42943 -0.19076,-0.12 -0.483441,-0.2671 -0.699022,-0.35146 -0.162035,-0.0633 -0.488281,-0.16017 -0.540103,-0.16017 -0.01673,0 -0.03043,-0.008 -0.03043,-0.0178 0,-0.0278 0.158452,-0.362 0.261739,-0.55212 0.295524,-0.54392 0.634652,-0.99447 1.095128,-1.45496 0.319447,-0.31944 0.519427,-0.48524 0.908779,-0.75341 0.368133,-0.25355 0.590591,-0.38757 0.916254,-0.552 0.691398,-0.3491 1.403222,-0.56189 2.215669,-0.66232 0.346669,-0.0428 1.211733,-0.043 1.540971,-1.9e-4 1.425493,0.18517 2.647615,0.74486 3.700821,1.69482 0.177858,0.1605 0.511089,0.5112 0.582533,0.6132 0.02088,0.0298 0.0087,0.0458 -0.153335,0.20047 -0.890212,0.84993 -2.045812,1.20706 -3.285216,1.01528 l -0.121434,-0.0188 -0.107117,-0.21453 c -0.250908,-0.50256 -0.564577,-0.96071 -0.892761,-1.304 l -0.151151,-0.15816 -0.185994,0.093 c -1.020287,0.51025 -1.827868,1.56088 -2.251783,2.92947 -0.232989,0.75221 -0.597202,1.37693 -0.990187,1.69843 -0.06213,0.0508 -0.120318,0.0925 -0.129301,0.0925 -0.009,0 -0.02573,-0.0313 -0.03723,-0.0698 z"
       id="path4496"
       inkscape:connector-curvature="0"
       sodipodi:nodetypes="ccccsssccccccccscssccscsccsccccscccscsssscccssscsccssscscssscssccscssscssscscscccscsscscc" />
  </g>
</svg>
